<?xml version="1.0" encoding="utf-8"?>
<!-- Generator: Adobe Illustrator 26.0.2, SVG Export Plug-In . SVG Version: 6.00 Build 0)  -->
<svg version="1.1" id="Layer_1" xmlns="http://www.w3.org/2000/svg" xmlns:xlink="http://www.w3.org/1999/xlink" x="0px" y="0px"
	 viewBox="0 0 200 200" style="enable-background:new 0 0 200 200;" xml:space="preserve">
<style type="text/css">
	.st0{fill:#1BBD5C;}
	.st1{fill:#FFFFFF;}
</style>
<rect class="st0" width="200" height="200"/>
<rect class="st0" width="200" height="200"/>
<path class="st1" d="M148.6,58c-3.9-4.4-8.8-7.8-14.3-9.9c-5.9-2.1-12.1-3.2-18.4-3.1C99,45,86.8,50.4,79.2,61.1h-0.9l-3.3-13H38
	v23.9h16.4V200h28.1v-44.5c3.4,1.6,7.1,2.7,10.9,3.1c4.4,0.7,8.8,1,13.3,1c7.8,0.1,15.6-1.3,22.9-4.1c6.5-2.6,12.3-6.7,17-11.9
	c4.8-5.5,8.5-12,10.7-19c2.6-8.1,3.8-16.6,3.7-25.1c0.2-8.3-0.9-16.5-3.3-24.4C155.9,68.8,152.8,63,148.6,58z M129.7,115.6
	c-1.2,4.2-3.3,8.1-6.1,11.5c-2.5,2.9-5.6,5.2-9.2,6.6c-3.6,1.4-7.5,2.1-11.3,2.1c-3.9,0-7.8-0.5-11.7-1.4c-3.2-0.6-6.2-1.9-8.8-3.8
	V85.4c1.5-5.2,4.9-9.6,9.5-12.4c4.6-2.7,9.8-4.2,15.2-4.1c3.3-0.1,6.7,0.6,9.7,1.9c3.1,1.4,5.8,3.4,8,5.9c4.7,5.2,7,12.6,7,22.1
	C132,104.5,131.3,110.1,129.7,115.6L129.7,115.6z"/>
</svg>
