<?xml version="1.0" encoding="utf-8"?>
<!-- Generator: Adobe Illustrator 25.4.1, SVG Export Plug-In . SVG Version: 6.00 Build 0)  -->
<svg version="1.1" id="Layer_1" xmlns="http://www.w3.org/2000/svg" xmlns:xlink="http://www.w3.org/1999/xlink" x="0px" y="0px"
	 viewBox="0 0 64 64" style="enable-background:new 0 0 64 64;" xml:space="preserve">
<g>
	<g>
		<path d="M32,26.8c2.9,0,5.3,2.4,5.3,5.3c0,2.9-2.4,5.3-5.3,5.3s-5.3-2.4-5.3-5.3C26.7,29.2,29.1,26.8,32,26.8 M32,19.8
			c-6.8,0-12.3,5.5-12.3,12.3S25.2,44.4,32,44.4s12.3-5.5,12.3-12.3S38.8,19.8,32,19.8L32,19.8z"/>
	</g>
</g>
<circle cx="46.3" cy="17.8" r="2.7"/>
<path d="M57,7v50H7V7H57 M64,0H0v64h64V0L64,0z"/>
</svg>
